<svg width="26" height="26" viewBox="0 0 26 26" fill="none" xmlns="http://www.w3.org/2000/svg">
<path d="M13 23.8333C14.1916 23.8333 15.1666 22.8583 15.1666 21.6666H10.8333C10.8333 22.8583 11.7975 23.8333 13 23.8333ZM19.5 17.3333V11.9166C19.5 8.59075 17.7233 5.80659 14.625 5.06992V4.33325C14.625 3.43409 13.8991 2.70825 13 2.70825C12.1008 2.70825 11.375 3.43409 11.375 4.33325V5.06992C8.26581 5.80659 6.49998 8.57992 6.49998 11.9166V17.3333L4.33331 19.4999V20.5833H21.6666V19.4999L19.5 17.3333Z" fill="#F7F8FC"/>
<path d="M21.1667 5.41675C21.1667 6.93553 19.9355 8.16675 18.4167 8.16675C16.8979 8.16675 15.6667 6.93553 15.6667 5.41675C15.6667 3.89797 16.8979 2.66675 18.4167 2.66675C19.9355 2.66675 21.1667 3.89797 21.1667 5.41675Z" fill="#3751FF" stroke="#F7F8FC"/>
</svg>
