<svg width="80" height="78" viewBox="0 0 80 78" fill="none" xmlns="http://www.w3.org/2000/svg">
<path d="M70.6937 23.8237L79.2675 15.25H66.7612C65.7312 14.1562 64.5 13.26 63.1225 12.6175C64.1287 11.49 65 10.0687 65 7.75C65 3.61375 61.6362 0.25 57.5 0.25C54.4837 0.25 51.885 2.04375 50.695 4.61625C49.5612 3.46625 47.9887 2.75 46.25 2.75C42.8037 2.75 40 5.55375 40 9V10.25C40 15.5387 44.485 18.4112 46.8862 19.57C46.48 20.7662 46.25 22.0437 46.25 23.375V33.6312C43.1575 28.9012 37.3862 25.25 30 25.25C24.1537 25.25 21.0737 27.2712 18.095 29.2262C15.7362 30.7737 13.51 32.2362 9.82374 32.7625L8.45124 32.9587L8.78874 34.3037C8.83375 34.4862 9.73999 37.77 15.3562 39.3775L13.2325 41.5L14.1162 42.3837C14.175 42.4425 14.71 42.9562 15.75 43.5987C9.66624 44.8775 2.31999 46.5087 2.22874 46.5287L0.338745 46.95L1.49999 48.5C1.62125 48.6625 3.84499 51.575 8.21874 54.1175L4.47 55.9925L5.18499 57.155C5.60624 57.8387 15.615 73.8062 30.9825 73.9912C33.1962 76.02 35.8675 77.3225 38.585 77.6625C39.0612 77.7212 39.5287 77.7512 39.9875 77.7512C42.3412 77.7512 44.4375 76.9675 46.03 75.4987C47.7487 76.9387 50.0562 77.75 52.5 77.75C57.485 77.75 61.6187 73.1612 62.3675 67.1875C69.11 61.5812 70 54.54 70 49V37.5725C70.4025 37.6775 70.8162 37.75 71.25 37.75C74.0075 37.75 76.25 35.5075 76.25 32.75C76.25 28.5937 72.685 25.3262 70.6937 23.8237ZM73.2325 17.75L69.7887 21.1937C69.56 19.9712 69.1512 18.8112 68.5775 17.75H73.2325ZM67.5 23.375V23.8775C67.3175 24.7975 66.25 30.325 66.25 32.75C66.25 34.0062 66.7312 35.1425 67.5 36.0225V42.925C67.2475 42.6012 67.0375 42.2375 66.81 41.8375C66.1312 40.64 65.2012 39 62.5 39C60.4425 39 58.5687 40.725 57.465 42.0025C56.2537 40.7337 54.08 39 51.25 39H48.75V23.375C48.75 18.205 52.955 14 58.125 14C63.295 14 67.5 18.205 67.5 23.375ZM42.5 10.25V9C42.5 6.9325 44.1825 5.25 46.25 5.25C48.3175 5.25 50 6.9325 50 9C50 9.68875 49.44 10.25 48.75 10.25C48.06 10.25 47.5 9.68875 47.5 9V7.75H45V9C45 11.0675 46.6825 12.75 48.75 12.75C50.8175 12.75 52.5 11.0675 52.5 9V7.75C52.5 4.9925 54.7425 2.75 57.5 2.75C60.2575 2.75 62.5 4.9925 62.5 7.75C62.5 9.6125 61.7375 10.51 60.495 11.7387C59.7287 11.5825 58.9362 11.5 58.125 11.5C53.8 11.5 50.0175 13.8325 47.9412 17.2975C46.0275 16.3662 42.5 14.1262 42.5 10.25ZM22.5 40.25V37.75C16.1037 37.75 13.2662 36.0737 12.0562 34.8762C15.2187 34.1037 17.3737 32.69 19.4675 31.3162C22.2625 29.4825 24.9012 27.75 30 27.75C39.5762 27.75 46.25 34.9962 46.25 41.5C46.25 44.47 41.8387 50.25 33.75 50.25C28.1362 50.25 24.7137 48.615 23.15 47.6187L24.4275 46.3412C25.3812 46.44 26.4012 46.5 27.5 46.5V44C21.8862 44 18.4637 42.365 16.9 41.3687L18.29 39.9787C19.5287 40.1487 20.92 40.25 22.5 40.25ZM38.895 75.1825C36.52 74.885 34.1575 73.6687 32.245 71.755C30.3325 69.8412 29.115 67.48 28.8187 65.105C28.535 62.845 29.13 60.8525 30.4912 59.4912C31.6312 58.3512 33.2125 57.75 35.025 57.75C35.3762 57.75 35.7375 57.7725 36.105 57.8187C38.48 58.1162 40.8425 59.3325 42.755 61.2462C44.6675 63.16 45.885 65.5212 46.1812 67.8962C46.465 70.1562 45.87 72.1487 44.5087 73.51C43.1487 74.87 41.1562 75.4625 38.895 75.1825ZM52.5 75.25C50.6187 75.25 48.8662 74.6312 47.5912 73.5425C48.5575 71.85 48.94 69.8025 48.6625 67.585C48.3337 64.9487 47.1 62.355 45.1737 60.18C46.6137 57.2162 49.4787 55.25 52.5 55.25C56.6362 55.25 60 59.7362 60 65.25C60 70.7637 56.6362 75.25 52.5 75.25ZM62.42 63.74C61.82 57.5587 57.605 52.75 52.5 52.75C48.7775 52.75 45.2412 54.9612 43.285 58.3762C41.2262 56.71 38.8387 55.64 36.415 55.3362C33.3712 54.9587 30.6425 55.8037 28.7237 57.7225C26.805 59.6412 25.9575 62.3725 26.3387 65.4137C26.595 67.4625 27.4025 69.4837 28.65 71.305C18.1375 69.8862 10.46 60.3112 8.08624 56.9787L11.0025 55.52C11.7462 55.8462 12.5237 56.1562 13.3562 56.4337L14.1475 54.0625C9.64124 52.56 6.54124 50.0862 4.89499 48.5C8.30624 47.7487 15.0812 46.2687 19.6325 45.3475C20.1787 45.5237 20.7637 45.6887 21.3975 45.835L19.4825 47.75L20.3662 48.6337C20.535 48.8025 24.5875 52.75 33.75 52.75C43.0437 52.75 48.75 46.1975 48.75 41.5H51.25C54.2687 41.5 56.44 44.665 56.46 44.6937L57.5 46.2537L58.54 44.6937C59.235 43.6512 61.1175 41.5 62.5 41.5C63.745 41.5 64.0062 41.96 64.6362 43.0712C65.1762 44.0225 65.8925 45.2725 67.5 46.0787V49C67.5 53.76 66.8425 59.135 62.42 63.74ZM71.25 35.25C69.8712 35.25 68.75 34.1287 68.75 32.75C68.75 31.2362 69.2537 28.165 69.6162 26.1562C71.2875 27.4962 73.75 29.9462 73.75 32.75C73.75 34.1287 72.6287 35.25 71.25 35.25Z" fill="#252733"/>
</svg>
